{
	"scenes":[{
		"nodes":[0]
	}],
	"asset":{
		"version":"2.0",
		"generator":"Created using the official Cinema 4D glTF Exporter 1.000x284978"
	},
	"nodes":[{
		"mesh":0,
		"name":"f1_tracks_15"
	}],
	"meshes":[{
		"name":"f1_tracks_15",
		"primitives":[{
			"attributes":{
				"POSITION":1
			},
			"indices":0,
			"material":0
		}]
	}],
	"accessors":[{
		"bufferView":0,
		"type":"SCALAR",
		"componentType":5123,
		"count":6648,
		"byteOffset":0,
		"min":[0],
		"max":[1107]
	},
	{
		"bufferView":1,
		"type":"VEC3",
		"componentType":5126,
		"count":1108,
		"byteOffset":0,
		"min":[-44.10899353027344,
		-3.0,
		-33.045013427734378],
		"max":[53.89100646972656,
		0.0,
		47.17999267578125]
	}],
	"bufferViews":[{
		"buffer":0,
		"byteOffset":0,
		"byteLength":13296,
		"target":34963
	},
	{
		"buffer":0,
		"byteOffset":13296,
		"byteLength":13296,
		"target":34962
	}],
	"buffers":[{
		"uri":"data:application/octet-stream;base64,",
		"byteLength":26592
	}],
	"materials":[{
		"pbrMetallicRoughness":{
			"baseColorFactor":[0.8588235294117647,
			0.039215686274509799,
			0.2509803921568629,
			1.0],
			"metallicFactor":1.0,
			"roughnessFactor":1.0
		},
		"emissiveFactor":[0.0,
		0.0,
		0.0],
		"alphaMode":"OPAQUE",
		"doubleSided":false,
		"name":"Mat"
	}]
}