{
	"scenes":[{
		"nodes":[0,
		1]
	}],
	"asset":{
		"version":"2.0",
		"generator":"Created using the official Cinema 4D glTF Exporter 1.000x284978"
	},
	"nodes":[{
		"scale":[1.0,
		1.0,
		1.0],
		"name":"Text",
		"translation":[-155.36578369140626,
		119.95649719238281,
		-218.64862060546876],
		"rotation":[0.0,
		-0.39097586274147036,
		0.0,
		-0.9204009175300598],
		"children":[2]
	},
	{
		"mesh":0,
		"name":"f1_tracks_15"
	},
	{
		"name":"Text Spline",
		"children":[3]
	},
	{
		"scale":[1.0,
		1.0,
		1.0],
		"name":"1",
		"translation":[-826.30615234375,
		0.0,
		-3.552713678800501e-14],
		"rotation":[0.0,
		0.0,
		0.0,
		-1.0],
		"children":[4,
		5,
		6,
		7]
	},
	{
		"name":"Circuit",
		"children":[8,
		9,
		10,
		11,
		12,
		13,
		14]
	},
	{
		"scale":[1.0,
		1.0,
		1.0],
		"name":"de",
		"translation":[391.142578125,
		1.7763568394002506e-14,
		-3.552713678800501e-14],
		"rotation":[0.0,
		-5.551115123125783e-17,
		0.0,
		-1.0],
		"children":[15,
		16]
	},
	{
		"scale":[1.0,
		1.0,
		1.0],
		"name":"Spa-",
		"translation":[563.544921875,
		1.7763568394002506e-14,
		-1.7763568394002506e-14],
		"rotation":[0.0,
		-5.551115123125783e-17,
		0.0,
		-1.0],
		"children":[17,
		18,
		19,
		20]
	},
	{
		"scale":[1.0,
		1.0,
		1.0],
		"name":"Francorchamps",
		"translation":[814.0869140625,
		1.7763568394002506e-14,
		3.552713678800501e-14],
		"rotation":[0.0,
		-5.551115123125783e-17,
		0.0,
		-1.0],
		"children":[21,
		22,
		23,
		24,
		25,
		26,
		27,
		28,
		29,
		30,
		31,
		32,
		33]
	},
	{
		"mesh":1,
		"name":"C"
	},
	{
		"scale":[1.0,
		1.0,
		1.0],
		"mesh":2,
		"name":"i",
		"translation":[92.9296875,
		1.7763568394002506e-14,
		0.0],
		"rotation":[0.0,
		-8.326672684688674e-17,
		0.0,
		-1.0]
	},
	{
		"scale":[1.0,
		1.0,
		1.0],
		"mesh":3,
		"name":"r",
		"translation":[122.8271484375,
		1.7763568394002506e-14,
		2.4868995751603509e-13],
		"rotation":[0.0,
		-8.326672684688674e-17,
		0.0,
		-1.0]
	},
	{
		"scale":[1.0,
		1.0,
		1.0],
		"mesh":4,
		"name":"c",
		"translation":[163.76953125,
		1.7763568394002506e-14,
		1.0658141036401503e-13],
		"rotation":[0.0,
		-8.326672684688674e-17,
		0.0,
		-1.0]
	},
	{
		"scale":[1.0,
		1.0,
		1.0],
		"mesh":5,
		"name":"u",
		"translation":[223.056640625,
		1.7763568394002506e-14,
		7.105427357601002e-14],
		"rotation":[0.0,
		-8.326672684688674e-17,
		0.0,
		-1.0]
	},
	{
		"scale":[1.0,
		1.0,
		1.0],
		"mesh":6,
		"name":"i",
		"translation":[291.5478515625,
		1.7763568394002506e-14,
		5.3290705182007517e-14],
		"rotation":[0.0,
		-8.326672684688674e-17,
		0.0,
		-1.0]
	},
	{
		"scale":[1.0,
		1.0,
		1.0],
		"mesh":7,
		"name":"t",
		"translation":[321.4453125,
		1.7763568394002506e-14,
		1.0658141036401503e-13],
		"rotation":[0.0,
		-8.326672684688674e-17,
		0.0,
		-1.0]
	},
	{
		"mesh":8,
		"name":"d"
	},
	{
		"scale":[1.0,
		1.0,
		1.0],
		"mesh":9,
		"name":"e",
		"translation":[70.33203125,
		1.7763568394002506e-14,
		8.881784197001253e-15],
		"rotation":[0.0,
		-8.326672684688674e-17,
		0.0,
		-1.0]
	},
	{
		"mesh":10,
		"name":"S"
	},
	{
		"scale":[1.0,
		1.0,
		1.0],
		"mesh":11,
		"name":"p",
		"translation":[64.74609375,
		1.7763568394002506e-14,
		1.3322676295501879e-13],
		"rotation":[0.0,
		-8.326672684688674e-17,
		0.0,
		-1.0]
	},
	{
		"scale":[1.0,
		1.0,
		1.0],
		"mesh":12,
		"name":"a",
		"translation":[135.078125,
		1.7763568394002506e-14,
		3.552713678800501e-14],
		"rotation":[0.0,
		-8.326672684688674e-17,
		0.0,
		-1.0]
	},
	{
		"scale":[1.0,
		1.0,
		1.0],
		"mesh":13,
		"name":"-",
		"translation":[205.41015625,
		0.0,
		1.7763568394002506e-14],
		"rotation":[0.0,
		-8.326672684688674e-17,
		0.0,
		-1.0]
	},
	{
		"mesh":14,
		"name":"F"
	},
	{
		"scale":[1.0,
		1.0,
		1.0],
		"mesh":15,
		"name":"r",
		"translation":[65.126953125,
		1.7763568394002506e-14,
		0.0],
		"rotation":[0.0,
		-8.326672684688674e-17,
		0.0,
		-1.0]
	},
	{
		"scale":[1.0,
		1.0,
		1.0],
		"mesh":16,
		"name":"a",
		"translation":[106.0693359375,
		1.7763568394002506e-14,
		0.0],
		"rotation":[0.0,
		-8.326672684688674e-17,
		0.0,
		-1.0]
	},
	{
		"scale":[1.0,
		1.0,
		1.0],
		"mesh":17,
		"name":"n",
		"translation":[176.4013671875,
		1.7763568394002506e-14,
		0.0],
		"rotation":[0.0,
		-8.326672684688674e-17,
		0.0,
		-1.0]
	},
	{
		"scale":[1.0,
		1.0,
		1.0],
		"mesh":18,
		"name":"c",
		"translation":[244.130859375,
		1.7763568394002506e-14,
		3.552713678800501e-14],
		"rotation":[0.0,
		-8.326672684688674e-17,
		0.0,
		-1.0]
	},
	{
		"scale":[1.0,
		1.0,
		1.0],
		"mesh":19,
		"name":"o",
		"translation":[303.41796875,
		1.7763568394002506e-14,
		-3.552713678800501e-14],
		"rotation":[0.0,
		-8.326672684688674e-17,
		0.0,
		-1.0]
	},
	{
		"scale":[1.0,
		1.0,
		1.0],
		"mesh":20,
		"name":"r",
		"translation":[375.9716796875,
		1.7763568394002506e-14,
		-7.105427357601002e-14],
		"rotation":[0.0,
		-8.326672684688674e-17,
		0.0,
		-1.0]
	},
	{
		"scale":[1.0,
		1.0,
		1.0],
		"mesh":21,
		"name":"c",
		"translation":[416.9140625,
		1.7763568394002506e-14,
		0.0],
		"rotation":[0.0,
		-8.326672684688674e-17,
		0.0,
		-1.0]
	},
	{
		"scale":[1.0,
		1.0,
		1.0],
		"mesh":22,
		"name":"h",
		"translation":[476.201171875,
		1.7763568394002506e-14,
		-7.105427357601002e-14],
		"rotation":[0.0,
		-8.326672684688674e-17,
		0.0,
		-1.0]
	},
	{
		"scale":[1.0,
		1.0,
		1.0],
		"mesh":23,
		"name":"a",
		"translation":[543.9306640625,
		1.7763568394002506e-14,
		-7.105427357601002e-14],
		"rotation":[0.0,
		-8.326672684688674e-17,
		0.0,
		-1.0]
	},
	{
		"scale":[1.0,
		1.0,
		1.0],
		"mesh":24,
		"name":"m",
		"translation":[614.2626953125,
		1.7763568394002506e-14,
		0.0],
		"rotation":[0.0,
		-8.326672684688674e-17,
		0.0,
		-1.0]
	},
	{
		"scale":[1.0,
		1.0,
		1.0],
		"mesh":25,
		"name":"p",
		"translation":[716.8408203125,
		1.7763568394002506e-14,
		0.0],
		"rotation":[0.0,
		-8.326672684688674e-17,
		0.0,
		-1.0]
	},
	{
		"scale":[1.0,
		1.0,
		1.0],
		"mesh":26,
		"name":"s",
		"translation":[787.1728515625,
		1.7763568394002506e-14,
		0.0],
		"rotation":[0.0,
		-8.326672684688674e-17,
		0.0,
		-1.0]
	}],
	"meshes":[{
		"name":"f1_tracks_15",
		"primitives":[{
			"attributes":{
				"POSITION":1
			},
			"indices":0,
			"material":0
		}]
	},
	{
		"name":"C",
		"primitives":[{
			"attributes":{
				"POSITION":3
			},
			"indices":2,
			"material":1
		}]
	},
	{
		"name":"i",
		"primitives":[{
			"attributes":{
				"POSITION":5
			},
			"indices":4,
			"material":1
		}]
	},
	{
		"name":"r",
		"primitives":[{
			"attributes":{
				"POSITION":7
			},
			"indices":6,
			"material":1
		}]
	},
	{
		"name":"c",
		"primitives":[{
			"attributes":{
				"POSITION":9
			},
			"indices":8,
			"material":1
		}]
	},
	{
		"name":"u",
		"primitives":[{
			"attributes":{
				"POSITION":11
			},
			"indices":10,
			"material":1
		}]
	},
	{
		"name":"i",
		"primitives":[{
			"attributes":{
				"POSITION":13
			},
			"indices":12,
			"material":1
		}]
	},
	{
		"name":"t",
		"primitives":[{
			"attributes":{
				"POSITION":15
			},
			"indices":14,
			"material":1
		}]
	},
	{
		"name":"d",
		"primitives":[{
			"attributes":{
				"POSITION":17
			},
			"indices":16,
			"material":1
		}]
	},
	{
		"name":"e",
		"primitives":[{
			"attributes":{
				"POSITION":19
			},
			"indices":18,
			"material":1
		}]
	},
	{
		"name":"S",
		"primitives":[{
			"attributes":{
				"POSITION":21
			},
			"indices":20,
			"material":1
		}]
	},
	{
		"name":"p",
		"primitives":[{
			"attributes":{
				"POSITION":23
			},
			"indices":22,
			"material":1
		}]
	},
	{
		"name":"a",
		"primitives":[{
			"attributes":{
				"POSITION":25
			},
			"indices":24,
			"material":1
		}]
	},
	{
		"name":"-",
		"primitives":[{
			"attributes":{
				"POSITION":27
			},
			"indices":26,
			"material":1
		}]
	},
	{
		"name":"F",
		"primitives":[{
			"attributes":{
				"POSITION":29
			},
			"indices":28,
			"material":1
		}]
	},
	{
		"name":"r",
		"primitives":[{
			"attributes":{
				"POSITION":31
			},
			"indices":30,
			"material":1
		}]
	},
	{
		"name":"a",
		"primitives":[{
			"attributes":{
				"POSITION":33
			},
			"indices":32,
			"material":1
		}]
	},
	{
		"name":"n",
		"primitives":[{
			"attributes":{
				"POSITION":35
			},
			"indices":34,
			"material":1
		}]
	},
	{
		"name":"c",
		"primitives":[{
			"attributes":{
				"POSITION":37
			},
			"indices":36,
			"material":1
		}]
	},
	{
		"name":"o",
		"primitives":[{
			"attributes":{
				"POSITION":39
			},
			"indices":38,
			"material":1
		}]
	},
	{
		"name":"r",
		"primitives":[{
			"attributes":{
				"POSITION":41
			},
			"indices":40,
			"material":1
		}]
	},
	{
		"name":"c",
		"primitives":[{
			"attributes":{
				"POSITION":43
			},
			"indices":42,
			"material":1
		}]
	},
	{
		"name":"h",
		"primitives":[{
			"attributes":{
				"POSITION":45
			},
			"indices":44,
			"material":1
		}]
	},
	{
		"name":"a",
		"primitives":[{
			"attributes":{
				"POSITION":47
			},
			"indices":46,
			"material":1
		}]
	},
	{
		"name":"m",
		"primitives":[{
			"attributes":{
				"POSITION":49
			},
			"indices":48,
			"material":1
		}]
	},
	{
		"name":"p",
		"primitives":[{
			"attributes":{
				"POSITION":51
			},
			"indices":50,
			"material":1
		}]
	},
	{
		"name":"s",
		"primitives":[{
			"attributes":{
				"POSITION":53
			},
			"indices":52,
			"material":1
		}]
	}],
	"accessors":[{
		"bufferView":0,
		"type":"SCALAR",
		"componentType":5123,
		"count":6648,
		"byteOffset":0,
		"min":[0],
		"max":[1107]
	},
	{
		"bufferView":1,
		"type":"VEC3",
		"componentType":5126,
		"count":1108,
		"byteOffset":0,
		"min":[-441.0899353027344,
		-30.0,
		-471.7999267578125],
		"max":[538.9100341796875,
		0.0,
		330.45013427734377]
	},
	{
		"bufferView":2,
		"type":"SCALAR",
		"componentType":5123,
		"count":1320,
		"byteOffset":0,
		"min":[0],
		"max":[221]
	},
	{
		"bufferView":3,
		"type":"VEC3",
		"componentType":5126,
		"count":222,
		"byteOffset":0,
		"min":[7.1728515625,
		-2.5390625,
		-20.0],
		"max":[86.328125,
		95.0244140625,
		0.0]
	},
	{
		"bufferView":4,
		"type":"SCALAR",
		"componentType":5123,
		"count":864,
		"byteOffset":0,
		"min":[0],
		"max":[147]
	},
	{
		"bufferView":5,
		"type":"VEC3",
		"componentType":5126,
		"count":148,
		"byteOffset":0,
		"min":[8.9501953125,
		-0.0634765625,
		-20.0],
		"max":[21.07421875,
		84.2333984375,
		0.0]
	},
	{
		"bufferView":6,
		"type":"SCALAR",
		"componentType":5123,
		"count":516,
		"byteOffset":0,
		"min":[0],
		"max":[87]
	},
	{
		"bufferView":7,
		"type":"VEC3",
		"componentType":5126,
		"count":88,
		"byteOffset":0,
		"min":[10.41015625,
		-0.0634765625,
		-20.0],
		"max":[43.037109375,
		58.3984375,
		0.0]
	},
	{
		"bufferView":8,
		"type":"SCALAR",
		"componentType":5123,
		"count":1200,
		"byteOffset":0,
		"min":[0],
		"max":[201]
	},
	{
		"bufferView":9,
		"type":"VEC3",
		"componentType":5126,
		"count":202,
		"byteOffset":0,
		"min":[5.83984375,
		-2.7294921875,
		-20.0],
		"max":[55.09765625,
		58.3984375,
		0.0]
	},
	{
		"bufferView":10,
		"type":"SCALAR",
		"componentType":5123,
		"count":888,
		"byteOffset":0,
		"min":[0],
		"max":[149]
	},
	{
		"bufferView":11,
		"type":"VEC3",
		"componentType":5126,
		"count":150,
		"byteOffset":0,
		"min":[10.41015625,
		-2.5390625,
		-20.0],
		"max":[58.0810546875,
		56.3037109375,
		0.0]
	},
	{
		"bufferView":12,
		"type":"SCALAR",
		"componentType":5123,
		"count":864,
		"byteOffset":0,
		"min":[0],
		"max":[147]
	},
	{
		"bufferView":13,
		"type":"VEC3",
		"componentType":5126,
		"count":148,
		"byteOffset":0,
		"min":[8.9501953125,
		-0.0634765625,
		-20.0],
		"max":[21.07421875,
		84.2333984375,
		0.0]
	},
	{
		"bufferView":14,
		"type":"SCALAR",
		"componentType":5123,
		"count":132,
		"byteOffset":0,
		"min":[0],
		"max":[23]
	},
	{
		"bufferView":15,
		"type":"VEC3",
		"componentType":5126,
		"count":24,
		"byteOffset":0,
		"min":[1.7138671875,
		-0.0634765625,
		-20.0],
		"max":[31.0400390625,
		79.4091796875,
		0.0]
	},
	{
		"bufferView":16,
		"type":"SCALAR",
		"componentType":5123,
		"count":1668,
		"byteOffset":0,
		"min":[0],
		"max":[277]
	},
	{
		"bufferView":17,
		"type":"VEC3",
		"componentType":5126,
		"count":278,
		"byteOffset":0,
		"min":[5.5859375,
		-2.5390625,
		-20.0],
		"max":[60.048828125,
		98.388671875,
		0.0]
	},
	{
		"bufferView":18,
		"type":"SCALAR",
		"componentType":5123,
		"count":1608,
		"byteOffset":0,
		"min":[0],
		"max":[267]
	},
	{
		"bufferView":19,
		"type":"VEC3",
		"componentType":5126,
		"count":268,
		"byteOffset":0,
		"min":[5.5859375,
		-2.5390625,
		-20.0],
		"max":[59.16015625,
		58.3984375,
		0.0]
	},
	{
		"bufferView":20,
		"type":"SCALAR",
		"componentType":5123,
		"count":2064,
		"byteOffset":0,
		"min":[0],
		"max":[345]
	},
	{
		"bufferView":21,
		"type":"VEC3",
		"componentType":5126,
		"count":346,
		"byteOffset":0,
		"min":[4.443359375,
		-2.5390625,
		-20.0],
		"max":[57.4462890625,
		95.1513671875,
		0.0]
	},
	{
		"bufferView":22,
		"type":"SCALAR",
		"componentType":5123,
		"count":1644,
		"byteOffset":0,
		"min":[0],
		"max":[273]
	},
	{
		"bufferView":23,
		"type":"VEC3",
		"componentType":5126,
		"count":274,
		"byteOffset":0,
		"min":[10.41015625,
		-28.310546875,
		-20.0],
		"max":[64.4921875,
		58.3984375,
		0.0]
	},
	{
		"bufferView":24,
		"type":"SCALAR",
		"componentType":5123,
		"count":1656,
		"byteOffset":0,
		"min":[0],
		"max":[275]
	},
	{
		"bufferView":25,
		"type":"VEC3",
		"componentType":5126,
		"count":276,
		"byteOffset":0,
		"min":[5.33203125,
		-2.5390625,
		-20.0],
		"max":[59.794921875,
		58.3984375,
		0.0]
	},
	{
		"bufferView":26,
		"type":"SCALAR",
		"componentType":5123,
		"count":36,
		"byteOffset":0,
		"min":[0],
		"max":[7]
	},
	{
		"bufferView":27,
		"type":"VEC3",
		"componentType":5126,
		"count":8,
		"byteOffset":0,
		"min":[8.6962890625,
		23.9306640625,
		-20.0],
		"max":[36.3720703125,
		32.119140625,
		0.0]
	},
	{
		"bufferView":28,
		"type":"SCALAR",
		"componentType":5123,
		"count":108,
		"byteOffset":0,
		"min":[0],
		"max":[19]
	},
	{
		"bufferView":29,
		"type":"VEC3",
		"componentType":5126,
		"count":20,
		"byteOffset":0,
		"min":[11.552734375,
		-0.0634765625,
		-20.0],
		"max":[57.5732421875,
		92.9931640625,
		0.0]
	},
	{
		"bufferView":30,
		"type":"SCALAR",
		"componentType":5123,
		"count":516,
		"byteOffset":0,
		"min":[0],
		"max":[87]
	},
	{
		"bufferView":31,
		"type":"VEC3",
		"componentType":5126,
		"count":88,
		"byteOffset":0,
		"min":[10.41015625,
		-0.0634765625,
		-20.0],
		"max":[43.037109375,
		58.3984375,
		0.0]
	},
	{
		"bufferView":32,
		"type":"SCALAR",
		"componentType":5123,
		"count":1656,
		"byteOffset":0,
		"min":[0],
		"max":[275]
	},
	{
		"bufferView":33,
		"type":"VEC3",
		"componentType":5126,
		"count":276,
		"byteOffset":0,
		"min":[5.33203125,
		-2.5390625,
		-20.0],
		"max":[59.794921875,
		58.3984375,
		0.0]
	},
	{
		"bufferView":34,
		"type":"SCALAR",
		"componentType":5123,
		"count":864,
		"byteOffset":0,
		"min":[0],
		"max":[145]
	},
	{
		"bufferView":35,
		"type":"VEC3",
		"componentType":5126,
		"count":146,
		"byteOffset":0,
		"min":[10.41015625,
		-0.0634765625,
		-20.0],
		"max":[57.9541015625,
		58.3984375,
		0.0]
	},
	{
		"bufferView":36,
		"type":"SCALAR",
		"componentType":5123,
		"count":1200,
		"byteOffset":0,
		"min":[0],
		"max":[201]
	},
	{
		"bufferView":37,
		"type":"VEC3",
		"componentType":5126,
		"count":202,
		"byteOffset":0,
		"min":[5.83984375,
		-2.7294921875,
		-20.0],
		"max":[55.09765625,
		58.3984375,
		0.0]
	},
	{
		"bufferView":38,
		"type":"SCALAR",
		"componentType":5123,
		"count":1836,
		"byteOffset":0,
		"min":[0],
		"max":[305]
	},
	{
		"bufferView":39,
		"type":"VEC3",
		"componentType":5126,
		"count":306,
		"byteOffset":0,
		"min":[5.712890625,
		-2.5390625,
		-20.0],
		"max":[66.8408203125,
		58.3984375,
		0.0]
	},
	{
		"bufferView":40,
		"type":"SCALAR",
		"componentType":5123,
		"count":516,
		"byteOffset":0,
		"min":[0],
		"max":[87]
	},
	{
		"bufferView":41,
		"type":"VEC3",
		"componentType":5126,
		"count":88,
		"byteOffset":0,
		"min":[10.41015625,
		-0.0634765625,
		-20.0],
		"max":[43.037109375,
		58.3984375,
		0.0]
	},
	{
		"bufferView":42,
		"type":"SCALAR",
		"componentType":5123,
		"count":1200,
		"byteOffset":0,
		"min":[0],
		"max":[201]
	},
	{
		"bufferView":43,
		"type":"VEC3",
		"componentType":5126,
		"count":202,
		"byteOffset":0,
		"min":[5.83984375,
		-2.7294921875,
		-20.0],
		"max":[55.09765625,
		58.3984375,
		0.0]
	},
	{
		"bufferView":44,
		"type":"SCALAR",
		"componentType":5123,
		"count":864,
		"byteOffset":0,
		"min":[0],
		"max":[145]
	},
	{
		"bufferView":45,
		"type":"VEC3",
		"componentType":5126,
		"count":146,
		"byteOffset":0,
		"min":[10.41015625,
		-0.0634765625,
		-20.0],
		"max":[57.9541015625,
		98.388671875,
		0.0]
	},
	{
		"bufferView":46,
		"type":"SCALAR",
		"componentType":5123,
		"count":1656,
		"byteOffset":0,
		"min":[0],
		"max":[275]
	},
	{
		"bufferView":47,
		"type":"VEC3",
		"componentType":5126,
		"count":276,
		"byteOffset":0,
		"min":[5.33203125,
		-2.5390625,
		-20.0],
		"max":[59.794921875,
		58.3984375,
		0.0]
	},
	{
		"bufferView":48,
		"type":"SCALAR",
		"componentType":5123,
		"count":1596,
		"byteOffset":0,
		"min":[0],
		"max":[267]
	},
	{
		"bufferView":49,
		"type":"VEC3",
		"componentType":5126,
		"count":268,
		"byteOffset":0,
		"min":[10.41015625,
		-0.0634765625,
		-20.0],
		"max":[92.16796875,
		58.3984375,
		0.0]
	},
	{
		"bufferView":50,
		"type":"SCALAR",
		"componentType":5123,
		"count":1644,
		"byteOffset":0,
		"min":[0],
		"max":[273]
	},
	{
		"bufferView":51,
		"type":"VEC3",
		"componentType":5126,
		"count":274,
		"byteOffset":0,
		"min":[10.41015625,
		-28.310546875,
		-20.0],
		"max":[64.4921875,
		58.3984375,
		0.0]
	},
	{
		"bufferView":52,
		"type":"SCALAR",
		"componentType":5123,
		"count":2160,
		"byteOffset":0,
		"min":[0],
		"max":[361]
	},
	{
		"bufferView":53,
		"type":"VEC3",
		"componentType":5126,
		"count":362,
		"byteOffset":0,
		"min":[3.9990234375,
		-2.5390625,
		-20.0],
		"max":[44.1796875,
		58.525390625,
		0.0]
	}],
	"bufferViews":[{
		"buffer":0,
		"byteOffset":0,
		"byteLength":13296,
		"target":34963
	},
	{
		"buffer":0,
		"byteOffset":13296,
		"byteLength":13296,
		"target":34962
	},
	{
		"buffer":1,
		"byteOffset":0,
		"byteLength":2640,
		"target":34963
	},
	{
		"buffer":1,
		"byteOffset":2640,
		"byteLength":2664,
		"target":34962
	},
	{
		"buffer":2,
		"byteOffset":0,
		"byteLength":1728,
		"target":34963
	},
	{
		"buffer":2,
		"byteOffset":1728,
		"byteLength":1776,
		"target":34962
	},
	{
		"buffer":3,
		"byteOffset":0,
		"byteLength":1032,
		"target":34963
	},
	{
		"buffer":3,
		"byteOffset":1032,
		"byteLength":1056,
		"target":34962
	},
	{
		"buffer":4,
		"byteOffset":0,
		"byteLength":2400,
		"target":34963
	},
	{
		"buffer":4,
		"byteOffset":2400,
		"byteLength":2424,
		"target":34962
	},
	{
		"buffer":5,
		"byteOffset":0,
		"byteLength":1776,
		"target":34963
	},
	{
		"buffer":5,
		"byteOffset":1776,
		"byteLength":1800,
		"target":34962
	},
	{
		"buffer":6,
		"byteOffset":0,
		"byteLength":1728,
		"target":34963
	},
	{
		"buffer":6,
		"byteOffset":1728,
		"byteLength":1776,
		"target":34962
	},
	{
		"buffer":7,
		"byteOffset":0,
		"byteLength":264,
		"target":34963
	},
	{
		"buffer":7,
		"byteOffset":264,
		"byteLength":288,
		"target":34962
	},
	{
		"buffer":8,
		"byteOffset":0,
		"byteLength":3336,
		"target":34963
	},
	{
		"buffer":8,
		"byteOffset":3336,
		"byteLength":3336,
		"target":34962
	},
	{
		"buffer":9,
		"byteOffset":0,
		"byteLength":3216,
		"target":34963
	},
	{
		"buffer":9,
		"byteOffset":3216,
		"byteLength":3216,
		"target":34962
	},
	{
		"buffer":10,
		"byteOffset":0,
		"byteLength":4128,
		"target":34963
	},
	{
		"buffer":10,
		"byteOffset":4128,
		"byteLength":4152,
		"target":34962
	},
	{
		"buffer":11,
		"byteOffset":0,
		"byteLength":3288,
		"target":34963
	},
	{
		"buffer":11,
		"byteOffset":3288,
		"byteLength":3288,
		"target":34962
	},
	{
		"buffer":12,
		"byteOffset":0,
		"byteLength":3312,
		"target":34963
	},
	{
		"buffer":12,
		"byteOffset":3312,
		"byteLength":3312,
		"target":34962
	},
	{
		"buffer":13,
		"byteOffset":0,
		"byteLength":72,
		"target":34963
	},
	{
		"buffer":13,
		"byteOffset":72,
		"byteLength":96,
		"target":34962
	},
	{
		"buffer":14,
		"byteOffset":0,
		"byteLength":216,
		"target":34963
	},
	{
		"buffer":14,
		"byteOffset":216,
		"byteLength":240,
		"target":34962
	},
	{
		"buffer":15,
		"byteOffset":0,
		"byteLength":1032,
		"target":34963
	},
	{
		"buffer":15,
		"byteOffset":1032,
		"byteLength":1056,
		"target":34962
	},
	{
		"buffer":16,
		"byteOffset":0,
		"byteLength":3312,
		"target":34963
	},
	{
		"buffer":16,
		"byteOffset":3312,
		"byteLength":3312,
		"target":34962
	},
	{
		"buffer":17,
		"byteOffset":0,
		"byteLength":1728,
		"target":34963
	},
	{
		"buffer":17,
		"byteOffset":1728,
		"byteLength":1752,
		"target":34962
	},
	{
		"buffer":18,
		"byteOffset":0,
		"byteLength":2400,
		"target":34963
	},
	{
		"buffer":18,
		"byteOffset":2400,
		"byteLength":2424,
		"target":34962
	},
	{
		"buffer":19,
		"byteOffset":0,
		"byteLength":3672,
		"target":34963
	},
	{
		"buffer":19,
		"byteOffset":3672,
		"byteLength":3672,
		"target":34962
	},
	{
		"buffer":20,
		"byteOffset":0,
		"byteLength":1032,
		"target":34963
	},
	{
		"buffer":20,
		"byteOffset":1032,
		"byteLength":1056,
		"target":34962
	},
	{
		"buffer":21,
		"byteOffset":0,
		"byteLength":2400,
		"target":34963
	},
	{
		"buffer":21,
		"byteOffset":2400,
		"byteLength":2424,
		"target":34962
	},
	{
		"buffer":22,
		"byteOffset":0,
		"byteLength":1728,
		"target":34963
	},
	{
		"buffer":22,
		"byteOffset":1728,
		"byteLength":1752,
		"target":34962
	},
	{
		"buffer":23,
		"byteOffset":0,
		"byteLength":3312,
		"target":34963
	},
	{
		"buffer":23,
		"byteOffset":3312,
		"byteLength":3312,
		"target":34962
	},
	{
		"buffer":24,
		"byteOffset":0,
		"byteLength":3192,
		"target":34963
	},
	{
		"buffer":24,
		"byteOffset":3192,
		"byteLength":3216,
		"target":34962
	},
	{
		"buffer":25,
		"byteOffset":0,
		"byteLength":3288,
		"target":34963
	},
	{
		"buffer":25,
		"byteOffset":3288,
		"byteLength":3288,
		"target":34962
	},
	{
		"buffer":26,
		"byteOffset":0,
		"byteLength":4320,
		"target":34963
	},
	{
		"buffer":26,
		"byteOffset":4320,
		"byteLength":4344,
		"target":34962
	}],
	"buffers":[{
		"uri":"data:application/octet-stream;base64,",
		"byteLength":26592
	},
	{
		"uri":"data:application/octet-stream;base64,",
		"byteLength":5304
	},
	{
		"uri":"data:application/octet-stream;base64,",
		"byteLength":3504
	},
	{
		"uri":"data:application/octet-stream;base64,",
		"byteLength":2088
	},
	{
		"uri":"data:application/octet-stream;base64,",
		"byteLength":4824
	},
	{
		"uri":"data:application/octet-stream;base64,",
		"byteLength":3576
	},
	{
		"uri":"data:application/octet-stream;base64,",
		"byteLength":3504
	},
	{
		"uri":"data:application/octet-stream;base64,",
		"byteLength":552
	},
	{
		"uri":"data:application/octet-stream;base64,",
		"byteLength":6672
	},
	{
		"uri":"data:application/octet-stream;base64,",
		"byteLength":6432
	},
	{
		"uri":"data:application/octet-stream;base64,",
		"byteLength":8280
	},
	{
		"uri":"data:application/octet-stream;base64,",
		"byteLength":6576
	},
	{
		"uri":"data:application/octet-stream;base64,",
		"byteLength":6624
	},
	{
		"uri":"data:application/octet-stream;base64,",
		"byteLength":168
	},
	{
		"uri":"data:application/octet-stream;base64,",
		"byteLength":456
	},
	{
		"uri":"data:application/octet-stream;base64,",
		"byteLength":2088
	},
	{
		"uri":"data:application/octet-stream;base64,",
		"byteLength":6624
	},
	{
		"uri":"data:application/octet-stream;base64,",
		"byteLength":3480
	},
	{
		"uri":"data:application/octet-stream;base64,",
		"byteLength":4824
	},
	{
		"uri":"data:application/octet-stream;base64,",
		"byteLength":7344
	},
	{
		"uri":"data:application/octet-stream;base64,",
		"byteLength":2088
	},
	{
		"uri":"data:application/octet-stream;base64,",
		"byteLength":4824
	},
	{
		"uri":"data:application/octet-stream;base64,",
		"byteLength":3480
	},
	{
		"uri":"data:application/octet-stream;base64,",
		"byteLength":6624
	},
	{
		"uri":"data:application/octet-stream;base64,",
		"byteLength":6408
	},
	{
		"uri":"data:application/octet-stream;base64,",
		"byteLength":6576
	},
	{
		"uri":"data:application/octet-stream;base64,",
		"byteLength":8664
	}],
	"materials":[{
		"pbrMetallicRoughness":{
			"baseColorFactor":[0.8588235294117647,
			0.039215686274509799,
			0.2509803921568629,
			1.0],
			"metallicFactor":1.0,
			"roughnessFactor":1.0
		},
		"emissiveFactor":[0.0,
		0.0,
		0.0],
		"alphaMode":"OPAQUE",
		"doubleSided":false,
		"name":"Mat"
	},
	{
		"pbrMetallicRoughness":{
			"baseColorFactor":[0.12800000000000004,
			0.32959999999999997,
			0.8,
			1.0],
			"metallicFactor":1.0,
			"roughnessFactor":1.0
		},
		"emissiveFactor":[0.0,
		0.0,
		0.0],
		"alphaMode":"OPAQUE",
		"doubleSided":false,
		"name":"Mat.1"
	}]
}