{
	"asset":{
		"version":"2.0",
		"generator":"Created using the official Cinema 4D glTF Exporter 1.000x284978"
	},
	"scenes":[{
		"nodes":[0]
	}],
	"bufferViews":[{
		"buffer":0,
		"byteOffset":0,
		"byteLength":5496,
		"target":34963
	},
	{
		"buffer":0,
		"byteOffset":5496,
		"byteLength":5496,
		"target":34962
	}],
	"nodes":[{
		"name":"monacomap",
		"translation":[18017.810546875,
		1998.6654052734376,
		-13337.248046875],
		"rotation":[0.0,
		0.0,
		0.0,
		-1.0],
		"scale":[1.0,
		1.0,
		1.0],
		"mesh":0
	}],
	"meshes":[{
		"name":"monacomap",
		"primitives":[{
			"attributes":{
				"POSITION":1
			},
			"indices":0,
			"material":0
		}]
	}],
	"accessors":[{
		"min":[0],
		"bufferView":0,
		"type":"SCALAR",
		"componentType":5123,
		"count":2748,
		"max":[457],
		"byteOffset":0
	},
	{
		"min":[-18017.810546875,
		-1998.6654052734376,
		-17244.353515625],
		"bufferView":1,
		"type":"VEC3",
		"componentType":5126,
		"count":458,
		"max":[18558.189453125,
		2085.654541015625,
		13337.248046875],
		"byteOffset":0
	}],
	"buffers":[{
		"uri":"data:application/octet-stream;base64,",
		"byteLength":10992
	}],
	"materials":[{
		"pbrMetallicRoughness":{
			"baseColorFactor":[0.8588235294117647,
			0.039215686274509799,
			0.2509803921568629,
			1.0],
			"metallicFactor":0.0,
			"roughnessFactor":0.5
		},
		"emissiveFactor":[0.0,
		0.0,
		0.0],
		"alphaMode":"OPAQUE",
		"doubleSided":true,
		"name":"Mat"
	}]
}