{"accessors" : [{"bufferView" : 0, "byteOffset" : 0, "componentType" : 5123, "count" : 10536, "type" : "SCALAR", "max" : [9670], "min" : [0]}, {"bufferView" : 1, "byteOffset" : 0, "componentType" : 5126, "count" : 9671, "type" : "VEC3", "max" : [1100.8812255859375, -137.8217010498047, 3], "min" : [903.3362426757812, -284.3039245605469, 7.471690502630982E-14], "name" : "POSITION"}, {"bufferView" : 1, "byteOffset" : 12, "componentType" : 5126, "count" : 9671, "type" : "VEC3", "max" : [1.0000044107437134, 1.000003695487976, 1.0000044107437134], "min" : [-1.0000044107437134, -1.0000044107437134, -1.0000044107437134], "name" : "NORMAL"}], "asset" : {"generator" : "Aspose.3D 23.2", "version" : "2.0"}, "buffers" : [{"uri" : "data:application/octet-stream;base64,", "byteLength" : 273944}], "bufferViews" : [{"buffer" : 0, "byteOffset" : 0, "byteLength" : 21072, "target" : 34963}, {"buffer" : 0, "byteOffset" : 21076, "byteLength" : 252864, "byteStride" : 24, "target" : 34962}], "meshes" : [{"primitives" : [{"attributes" : {"POSITION" : 1, "NORMAL" : 2}, "indices" : 0, "mode" : 4}], "name" : ""}], "nodes" : [{"mesh" : 0, "name" : ""}], "scene" : 0, "scenes" : [{"nodes" : [0]}]}